<svg width="630" height="636" viewBox="0 0 630 636" fill="none" xmlns="http://www.w3.org/2000/svg">
<path d="M608.333 245.901C601.532 161.172 598.132 118.807 582.304 91.3974C536.988 12.9161 405.232 -5.74989 322.018 1.40807C210.615 10.9883 83.1704 75.7048 27.0714 200.656C-23.8811 314.147 -0.386662 442.611 76.3878 526.647C217.128 680.697 507.442 653.193 578.361 552.108C606.663 511.766 608.703 447.331 611.702 352.679C613.143 307.116 610.33 270.807 608.333 245.901Z" fill="#F4F7FA"/>
<path d="M554.949 51.8378C547.747 45.8161 536.821 42.5365 527.585 41.8742C462.118 37.1862 452.564 175.471 462.599 206.376C472.633 237.28 466.131 247.427 414.57 263.596C363.01 279.765 387.745 310.896 394.03 329.102C400.314 347.308 412.759 362.687 375.172 380.777C337.585 398.867 350.647 410.076 350.647 410.076C350.647 410.076 419.964 481.726 416.135 458.787C412.306 435.848 419.243 401.21 481.391 398.577C508.16 397.443 549.152 384.54 558.228 355.575C560.343 348.83 561.813 338.528 560.206 331.547C557.975 321.862 551.686 314.233 548.194 305.117C540.055 283.877 560.468 268.323 572.215 254.125C578.349 246.713 584.479 239.113 589.174 230.662C598.926 213.116 595.274 194.301 584.656 178.127C579.564 170.373 572.489 162.144 570.267 152.893C567.882 142.957 569.962 129.38 570.528 119.158C570.972 111.14 571.728 103.155 571.282 95.1166C570.456 80.1702 566.99 61.9056 554.949 51.8378Z" fill="url(#paint0_linear_44_631)"/>
<g opacity="0.8">
<g opacity="0.8">
<path opacity="0.8" d="M345.198 450.291C344.749 450.454 344.239 450.261 344.012 449.824C343.766 449.345 343.947 448.753 344.421 448.504C344.713 448.349 373.895 432.838 406.447 407.291C436.444 383.751 475.521 346.634 491.342 303.485C504.557 267.448 516.607 207.871 524.407 140.033C531.4 79.202 532.505 34.2129 529.533 25.862C529.351 25.354 529.614 24.7937 530.117 24.61C530.619 24.4263 531.174 24.6917 531.355 25.1997C534.832 34.9705 532.626 85.5094 526.333 140.26C518.517 208.247 506.427 267.987 493.16 304.165C477.175 347.757 437.815 385.159 407.61 408.858C374.923 434.505 345.613 450.082 345.321 450.236C345.278 450.257 345.238 450.275 345.198 450.291Z" fill="white"/>
</g>
<g opacity="0.8">
<path opacity="0.8" d="M524.3 151.825C523.8 152.007 523.29 151.866 523.106 151.36C522.864 150.691 498.458 84.3395 466.987 69.359C466.502 69.13 466.307 68.5766 466.534 68.0867C466.762 67.5968 467.344 67.404 467.826 67.6331C500.018 82.956 523.916 147.915 524.92 150.68C525.104 151.188 524.807 151.642 524.305 151.823C524.302 151.825 524.3 151.825 524.3 151.825Z" fill="white"/>
</g>
<g opacity="0.8">
<path opacity="0.8" d="M512.399 228.773C512.026 228.909 511.591 228.802 511.324 228.473C510.985 228.056 511.043 227.439 511.456 227.096C511.636 226.947 529.604 212.052 551.775 199.553C581.731 182.665 604.689 177.95 620.009 185.541C620.49 185.779 620.687 186.365 620.451 186.85C620.216 187.335 619.637 187.535 619.156 187.297C583.906 169.833 513.393 228.015 512.686 228.605C512.599 228.68 512.5 228.736 512.399 228.773Z" fill="white"/>
</g>
<g opacity="0.8">
<path opacity="0.8" d="M434.169 386.055C434.071 386.092 433.967 386.11 433.857 386.112C433.323 386.121 432.883 385.69 432.874 385.148C432.87 384.865 432.371 356.396 426.475 326.399C421.069 298.897 409.905 264.447 387.425 256.509C386.92 256.33 386.653 255.772 386.83 255.264C387.005 254.754 387.56 254.484 388.062 254.663C406.808 261.281 420.371 285.297 428.379 326.045C434.306 356.212 434.804 384.833 434.809 385.119C434.818 385.55 434.549 385.917 434.169 386.055Z" fill="white"/>
</g>
<g opacity="0.8">
<path opacity="0.8" d="M474.172 340.062C473.779 340.205 473.325 340.078 473.065 339.722C472.746 339.286 472.838 338.674 473.267 338.354C476.385 336.025 549.92 281.394 578.597 286.611C579.125 286.706 579.472 287.216 579.378 287.747C579.284 288.28 578.781 288.634 578.254 288.536C550.389 283.467 475.175 339.361 474.418 339.926C474.342 339.987 474.257 340.03 474.172 340.062Z" fill="white"/>
</g>
</g>
<path d="M612.408 255.517C607.648 247.388 598.464 240.566 589.995 236.785C529.958 209.988 474.664 336.849 473.758 369.362C472.851 401.874 463.335 409.2 409.404 406.785C355.471 404.369 368.322 442.123 368.14 461.404C367.958 480.684 374.519 499.412 333.091 503.583C291.664 507.754 300.202 522.766 300.202 522.766C300.202 522.766 341.438 613.891 345.517 590.995C349.595 568.099 367.72 537.878 427.083 556.653C452.651 564.738 495.546 566.614 513.787 542.461C518.035 536.837 522.867 527.647 523.691 520.527C524.834 510.652 521.471 501.321 521.236 491.551C520.688 468.779 545.107 461.122 560.915 451.78C569.167 446.904 577.481 441.846 584.73 435.5C599.781 422.325 602.647 403.371 598.071 384.521C595.876 375.483 591.973 365.32 592.981 355.856C594.062 345.69 600.567 333.624 604.521 324.198C607.623 316.807 611.01 309.549 613.281 301.833C617.512 287.478 620.369 269.107 612.408 255.517Z" fill="url(#paint1_linear_44_631)"/>
<g opacity="0.8">
<g opacity="0.8">
<path opacity="0.8" d="M281.606 558.741C281.13 558.741 280.715 558.385 280.648 557.895C280.576 557.36 280.946 556.865 281.476 556.792C281.801 556.747 314.455 552.129 353.642 539.22C389.75 527.326 438.952 505.759 468.289 470.566C492.791 441.172 524.081 389.231 554.133 328.062C581.082 273.212 597.185 231.253 597.185 222.378C597.185 221.838 597.619 221.4 598.153 221.4C598.687 221.4 599.12 221.838 599.12 222.378C599.12 232.761 580.121 279.564 555.866 328.933C525.746 390.236 494.365 442.32 469.768 471.827C440.131 507.381 390.567 529.118 354.208 541.091C314.861 554.048 282.064 558.684 281.736 558.729C281.696 558.738 281.651 558.741 281.606 558.741Z" fill="white"/>
</g>
<g opacity="0.8">
<path opacity="0.8" d="M550.087 339.326C549.555 339.326 549.122 338.918 549.119 338.38C549.115 337.668 548.368 266.835 523.769 241.977C523.39 241.596 523.39 240.981 523.769 240.6C524.146 240.219 524.759 240.221 525.138 240.602C550.3 266.029 551.036 335.423 551.056 338.367C551.061 338.906 550.63 339.326 550.094 339.326C550.089 339.326 550.087 339.326 550.087 339.326Z" fill="white"/>
</g>
<g opacity="0.8">
<path opacity="0.8" d="M513.122 407.464C512.725 407.464 512.352 407.215 512.211 406.816C512.031 406.308 512.292 405.747 512.797 405.564C513.015 405.484 534.911 397.612 559.961 393.432C593.804 387.782 616.987 391.198 628.864 403.579C629.237 403.967 629.226 404.586 628.842 404.963C628.458 405.339 627.845 405.328 627.473 404.94C600.149 376.453 514.314 407.092 513.45 407.405C513.34 407.446 513.23 407.464 513.122 407.464Z" fill="white"/>
</g>
<g opacity="0.8">
<path opacity="0.8" d="M386.84 528.719C386.737 528.719 386.631 528.701 386.526 528.667C386.021 528.492 385.749 527.937 385.924 527.424C386.014 527.154 395.079 500.196 399.575 469.952C403.696 442.223 404.726 405.988 386.23 390.831C385.814 390.491 385.751 389.874 386.088 389.454C386.425 389.035 387.035 388.969 387.45 389.311C402.874 401.949 407.596 429.188 401.485 470.267C396.962 500.682 387.848 527.785 387.756 528.057C387.619 528.463 387.242 528.719 386.84 528.719Z" fill="white"/>
</g>
<g opacity="0.8">
<path opacity="0.8" d="M439.883 499.117C439.465 499.117 439.081 498.842 438.956 498.42C438.801 497.903 439.092 497.357 439.604 497.203C443.316 496.078 530.808 469.814 556.046 484.529C556.509 484.799 556.668 485.397 556.401 485.865C556.134 486.332 555.541 486.493 555.079 486.223C530.554 471.925 441.061 498.804 440.161 499.076C440.069 499.103 439.975 499.117 439.883 499.117Z" fill="white"/>
</g>
</g>
<path d="M411.155 26.9805L410.463 31.9838C408.167 32.0904 405.91 32.3898 403.712 32.8888L401.84 28.2211C401.331 26.9488 399.888 26.3432 398.62 26.8716L390.681 30.1762C389.411 30.7046 388.791 32.1698 389.299 33.4445L391.179 38.1711C389.256 39.4094 387.438 40.8111 385.746 42.3624L381.76 39.237C380.682 38.3933 379.12 38.602 378.27 39.7043L372.937 46.5991C372.082 47.7037 372.264 49.2868 373.341 50.1327L377.343 53.2763C376.277 55.2994 375.381 57.4359 374.658 59.6654L369.579 58.9917C368.215 58.8103 366.944 59.7878 366.742 61.1759L365.465 69.8716C365.261 71.2642 366.204 72.5433 367.571 72.7248L372.665 73.4007C372.726 75.7481 372.98 78.057 373.431 80.3046L368.65 82.3186C367.362 82.8607 366.729 84.3599 367.236 85.664L370.421 93.8426C370.93 95.1535 372.392 95.7727 373.684 95.2261L378.467 93.203C379.67 95.1807 381.041 97.0451 382.563 98.7778L379.376 102.96C378.514 104.092 378.698 105.711 379.789 106.578L386.621 111.994C387.714 112.86 389.301 112.642 390.161 111.506L393.309 107.351C395.32 108.433 397.448 109.333 399.668 110.052L398.952 115.237C398.757 116.657 399.715 117.956 401.093 118.138L409.718 119.281C411.099 119.465 412.371 118.46 412.564 117.04L413.26 111.894C415.605 111.792 417.91 111.486 420.153 110.975L422.045 115.729C422.57 117.049 424.04 117.673 425.328 117.122L433.372 113.677C434.658 113.126 435.271 111.613 434.743 110.297L432.851 105.577C434.815 104.296 436.665 102.842 438.379 101.234L442.312 104.323C443.411 105.187 444.987 104.97 445.831 103.838L451.098 96.7797C451.94 95.6525 451.731 94.0444 450.634 93.1848L446.738 90.132C447.799 88.0522 448.681 85.8545 449.381 83.566L454.252 84.2124C455.619 84.3939 456.871 83.4073 457.048 82.0102L458.155 73.2918C458.332 71.9015 457.369 70.6268 456.005 70.4454L451.148 69.8013C451.047 67.4244 450.751 65.0928 450.252 62.827L454.757 60.9219C456.023 60.3866 456.622 58.9078 456.097 57.6196L452.806 49.5816C452.281 48.2979 450.831 47.6901 449.566 48.2231L445.034 50.1327C443.8 48.1754 442.404 46.3292 440.853 44.6214L443.847 40.6727C444.679 39.5727 444.475 38.001 443.393 37.1595L436.626 31.9044C435.545 31.0653 433.994 31.2717 433.159 32.3671L430.147 36.3203C428.149 35.2725 426.04 34.4016 423.838 33.7121L424.509 28.7473C424.693 27.382 423.748 26.1277 422.395 25.9485L413.94 24.8281C412.593 24.6535 411.343 25.6129 411.155 26.9805ZM381.347 67.5083C383.791 50.3255 399.396 38.2799 416.218 40.5094C433.04 42.7389 444.855 58.4202 442.594 75.6256C440.321 92.9376 424.682 105.219 407.676 102.967C390.67 100.712 378.889 84.7953 381.347 67.5083Z" fill="#D8DEE8"/>
<path d="M281.513 24.2676L280.445 32.004C276.896 32.1673 273.404 32.6299 270.006 33.4011L267.113 26.1841C266.323 24.2155 264.094 23.281 262.135 24.0975L249.86 29.2075C247.896 30.0262 246.938 32.2875 247.723 34.2629L250.632 41.5706C247.658 43.4848 244.846 45.6508 242.231 48.0527L236.059 43.2194C234.396 41.9153 231.979 42.2397 230.664 43.9407L222.418 54.6005C221.096 56.3084 221.376 58.7556 223.042 60.0642L229.229 64.9269C227.582 68.0546 226.195 71.3591 225.077 74.8043L217.224 73.7632C215.117 73.4843 213.153 74.9948 212.836 77.1404L210.863 90.5876C210.547 92.7423 212.006 94.7177 214.12 94.9967L221.996 96.04C222.09 99.6689 222.481 103.241 223.181 106.716L215.79 109.83C213.797 110.669 212.818 112.985 213.604 115.003L218.528 127.648C219.316 129.673 221.576 130.632 223.574 129.786L230.969 126.659C232.827 129.716 234.948 132.599 237.303 135.277L232.376 141.743C231.043 143.494 231.328 145.998 233.016 147.336L243.58 155.71C245.27 157.051 247.723 156.713 249.054 154.957L253.922 148.534C257.031 150.208 260.323 151.6 263.755 152.712L262.646 160.729C262.343 162.925 263.825 164.934 265.959 165.215L279.295 166.982C281.428 167.266 283.398 165.712 283.694 163.517L284.772 155.56C288.399 155.404 291.963 154.93 295.428 154.141L298.353 161.491C299.165 163.533 301.439 164.497 303.43 163.644L315.868 158.318C317.854 157.468 318.804 155.127 317.987 153.09L315.06 145.792C318.097 143.812 320.956 141.562 323.609 139.076L329.687 143.853C331.386 145.189 333.821 144.851 335.127 143.104L343.272 132.193C344.572 130.451 344.251 127.963 342.554 126.634L336.53 121.916C338.173 118.698 339.535 115.3 340.617 111.764L348.149 112.762C350.264 113.044 352.201 111.517 352.474 109.358L354.185 95.8767C354.458 93.7243 352.968 91.7557 350.861 91.4767L343.351 90.481C343.196 86.8068 342.738 83.2006 341.966 79.6987L348.933 76.7525C350.892 75.9247 351.819 73.6385 351.002 71.6472L345.914 59.2183C345.102 57.2337 342.859 56.2948 340.904 57.1181L333.9 60.0688C331.992 57.0409 329.831 54.1877 327.436 51.55L332.064 45.4444C333.352 43.7456 333.038 41.3143 331.361 40.0124L320.898 31.8883C319.226 30.591 316.826 30.9108 315.536 32.605L310.877 38.7174C307.786 37.098 304.525 35.7508 301.122 34.6825L302.161 27.0052C302.447 24.8936 300.983 22.9567 298.894 22.68L285.82 20.9472C283.735 20.6705 281.805 22.1561 281.513 24.2676ZM235.424 86.9315C239.201 60.3636 263.331 41.7384 289.339 45.1858C315.347 48.6333 333.615 72.8787 330.122 99.4829C326.608 126.248 302.429 145.241 276.135 141.755C249.84 138.271 231.622 113.658 235.424 86.9315Z" fill="#D8DEE8"/>
<path d="M269.002 99.1812L211.824 579.449C210.966 586.65 215.877 593.105 222.759 593.795L460.917 620.217C475.506 621.134 483.494 613.602 484.396 605.945L544.427 95.3391C545.323 87.7253 538.165 80.8281 523.514 80.8281L283.189 85.9426C276.229 86.0628 269.855 92.0187 269.002 99.1812Z" fill="url(#paint2_linear_44_631)"/>
<path d="M258.284 98.3553L200.791 581.025C199.929 588.263 204.858 594.752 211.762 595.446L458.665 620.288C466.406 621.065 473.5 615.407 474.405 607.711L534.773 94.4679C535.673 86.8132 529.988 80.6623 522.161 80.7961L272.52 85.0532C265.54 85.1689 259.141 91.1565 258.284 98.3553Z" fill="url(#paint3_linear_44_631)"/>
<path d="M262.97 124.977L209.681 572.509C208.875 579.27 213.492 585.321 219.954 585.956L452.158 608.766C459.354 609.473 465.948 604.191 466.792 597.026L522.581 122.909C523.42 115.783 518.141 110.015 510.872 110.095L276.284 112.619C269.755 112.687 263.771 118.25 262.97 124.977Z" fill="#D8DEE8"/>
<path d="M387.49 98.0221C387.185 100.592 389.01 102.649 391.568 102.615C394.129 102.583 396.455 100.469 396.76 97.8951C397.065 95.3209 395.234 93.2637 392.673 93.3023C390.112 93.3408 387.793 95.4547 387.49 98.0221Z" fill="url(#paint4_linear_44_631)"/>
<path d="M303.116 425.39C350.653 336.576 421.668 309.989 443.048 218.456C454.605 168.978 446.731 121.621 433.469 82.3069L522.166 80.7941C529.992 80.6603 535.677 86.8135 534.777 94.4659L474.409 607.709C473.505 615.407 466.41 621.066 458.669 620.286L264.58 600.758C263.141 521.176 281.924 464.979 303.116 425.39Z" fill="white"/>
<path d="M23.873 149.289C23.873 102.096 64.6113 63.8451 113.499 63.8496C160.941 63.8541 198.383 100.093 198.383 144.789C198.383 189.486 160.941 227.655 113.499 230.107C64.6091 232.633 23.873 196.483 23.873 149.289Z" fill="url(#paint5_linear_44_631)"/>
<path d="M29.1426 145.527C29.1426 98.333 68.7025 60.0824 116.174 60.0869C162.243 60.0915 198.602 96.3303 198.602 141.027C198.602 185.723 162.243 223.892 116.174 226.344C68.7003 228.871 29.1426 192.718 29.1426 145.527Z" fill="url(#paint6_linear_44_631)"/>
<g opacity="0.5">
<path opacity="0.5" d="M42.6855 145.166C42.6855 105.516 75.9207 73.378 115.806 73.3848C154.511 73.3893 185.06 103.836 185.06 141.388C185.06 178.94 154.513 211.008 115.806 213.067C75.9207 215.19 42.6855 184.816 42.6855 145.166Z" fill="white"/>
</g>
<path opacity="0.5" d="M113.062 79.4767C151.766 79.4813 182.315 109.928 182.315 147.48C182.315 156.409 180.571 165.021 177.418 173C182.302 163.392 185.062 152.639 185.062 141.388C185.062 103.836 154.516 73.3893 115.809 73.3848C85.047 73.3825 58.2577 92.5067 47.6035 119.442C59.6672 95.7613 84.6744 79.4745 113.062 79.4767Z" fill="white"/>
<path d="M82.7363 135.461V170.067C82.7363 180.071 91.0653 187.964 101.309 187.694L126.709 187.025C136.829 186.758 145.007 178.518 145.007 168.618V134.377L82.7363 135.461ZM106.128 171.237L110.848 156.783C108.825 155.728 107.456 153.651 107.456 151.231C107.456 147.679 110.405 144.742 114.037 144.674C117.664 144.604 120.602 147.42 120.602 150.965C120.602 153.381 119.237 155.511 117.222 156.649L121.924 170.865L106.128 171.237Z" fill="white"/>
<path d="M137.787 131.377C135.091 131.422 132.905 129.315 132.905 126.668C132.905 116.496 124.455 108.331 114.034 108.467C103.578 108.603 95.0422 117.043 95.0422 127.278C95.0422 129.941 92.8269 132.136 90.091 132.184C87.3528 132.229 85.1309 130.107 85.1309 127.439C85.1309 111.86 98.1327 99.0366 114.037 98.8574C129.855 98.6782 142.66 111.084 142.66 126.514C142.66 129.154 140.48 131.331 137.787 131.377Z" fill="white"/>
<path d="M196.618 328.758C196.618 328.758 194.889 322.212 196.115 320.538C197.338 318.865 204.823 312.174 204.105 314.356C203.385 316.538 202.305 317.991 202.305 317.991C202.305 317.991 206.336 319.883 203.744 322.718C201.154 325.555 200.287 326.209 200.144 328.756C200.002 331.303 198.346 332.176 196.618 328.758Z" fill="url(#paint7_linear_44_631)"/>
<path d="M124.718 611.304C124.718 611.304 123.802 616.965 123.918 618.979C124.035 620.993 146.161 622.022 146.383 620.514C146.605 619.006 142.727 616.604 139.995 615.758C137.264 614.91 129.269 612.651 129.269 612.651L124.718 611.304Z" fill="url(#paint8_linear_44_631)"/>
<path d="M130.089 605.662L129.384 612.702C129.384 612.702 126.814 614.419 124.549 613.094L123.416 605.433L130.089 605.662Z" fill="url(#paint9_linear_44_631)"/>
<path d="M85.2409 620.481C85.2409 620.481 84.3252 626.143 84.4419 628.157C84.5586 630.171 106.684 631.2 106.906 629.692C107.131 628.184 103.25 625.782 100.519 624.936C97.7872 624.09 89.7926 621.829 89.7926 621.829L85.2409 620.481Z" fill="url(#paint10_linear_44_631)"/>
<path d="M90.614 614.837L89.9093 621.877C89.9093 621.877 87.3395 623.594 85.0748 622.27L83.9414 614.608L90.614 614.837Z" fill="url(#paint11_linear_44_631)"/>
<path d="M126.075 421.891C128.631 427.13 131.19 432.369 133.746 437.609C135.802 467.508 136.826 500.023 136.168 534.794C135.679 560.664 134.312 585.17 132.346 608.173C128.878 608.011 125.411 607.85 121.943 607.689C116.929 597.633 111.01 582.398 110.465 563.592C109.897 543.975 115.782 541.369 115.409 522.588C114.925 498.242 104.823 491.747 99.4405 462.464C97.3823 451.264 95.9975 436.638 97.6427 418.893C107.121 419.893 116.597 420.893 126.075 421.891Z" fill="url(#paint12_linear_44_631)"/>
<path opacity="0.3" d="M97.6437 418.893C102.761 419.432 107.878 419.972 112.998 420.512C122.211 436.713 124.783 453.573 123.165 461.033C120.878 471.586 114.827 474.966 115.161 485.56C115.491 496.043 121.603 498.762 125.479 511.116C128.163 519.671 127.454 527.537 125.928 542.919C122.853 573.902 115.449 583.378 121.65 593.537C123.412 596.424 126.588 599.86 132.809 602.484C132.656 604.385 132.506 606.29 132.347 608.17C128.879 608.011 125.412 607.848 121.944 607.689C116.93 597.633 111.011 582.398 110.466 563.592C109.898 543.975 115.783 541.369 115.41 522.588C114.926 498.242 104.824 491.749 99.4415 462.466C97.3833 451.267 95.9963 436.64 97.6437 418.893Z" fill="url(#paint13_linear_44_631)"/>
<path d="M112.313 431.323C107.512 457.777 103.273 486.09 99.9643 516.116C95.9692 552.371 93.837 586.55 92.9999 618.283C89.1933 618.392 85.3891 618.5 81.5826 618.609C66.5854 588.628 65.6697 568.302 67.8311 555.068C68.6638 549.969 70.9284 539.969 71.4446 525.023C71.8037 514.606 71.1461 506.677 70.3246 497.146C68.5246 476.251 66.3385 471.69 66.0243 455.707C65.7281 440.706 65.6675 433.117 69.9049 428.688C81.0686 417.014 110.111 430.289 112.313 431.323Z" fill="url(#paint14_linear_44_631)"/>
<path d="M194.628 327.748C197.16 327.569 199.689 327.392 202.221 327.213C208.191 351.597 203.909 375.248 190.433 383.946C169.379 397.536 130.247 371.932 121.768 344.051C118.047 331.813 118.893 314.154 126.333 310.722C128.398 309.769 131.603 309.622 138.545 313.559C159.276 325.321 159.822 347.553 170.362 349.435C175.043 350.274 182.612 347.256 194.628 327.748Z" fill="url(#paint15_linear_44_631)"/>
<path d="M136.66 442.972C140.307 436.857 135.726 430.961 134.685 419.378C133.504 406.248 138.509 404.062 143.458 382.304C146.751 367.834 149.908 353.942 146.138 337.68C144.331 329.887 141.265 316.669 130.438 310.285C124.852 306.989 117.223 307.32 102.197 308.114C83.6132 309.096 74.3236 309.586 67.3928 313.274C66.3783 313.814 45.2989 325.401 43.8467 344.289C42.3699 363.513 63.0858 366.097 65.8487 391.732C67.0898 403.24 64.8791 420.94 63.4449 432.419C62.0691 443.442 61.1197 446.263 63.2743 449.602C68.4634 457.646 84.3471 455.353 116.114 450.77C128.575 448.969 133.937 447.535 136.66 442.972Z" fill="url(#paint16_linear_44_631)"/>
<path d="M88.3222 387.607C86.9778 392.604 82.1478 396.335 78.7857 408.489C78.0607 411.113 72.8874 429.8 79.5959 434.399C83.4698 437.055 86.9486 432.022 96.3527 431.365C112.647 430.226 120.41 444.066 131.056 440.285C132.903 439.627 135.34 438.23 137.775 435.019C138.26 437.913 138.177 440.428 136.66 442.975C133.94 447.538 128.576 448.972 116.115 450.77C84.3473 455.354 68.4636 457.647 63.2746 449.602C61.1222 446.266 62.0693 443.442 63.4451 432.419C64.8793 420.939 67.0901 403.239 65.8489 391.733C63.086 366.097 42.3679 363.514 43.847 344.29C44.242 339.15 46.1116 334.576 48.6141 330.591C74.8939 341.337 92.5439 371.906 88.3222 387.607Z" fill="url(#paint17_linear_44_631)"/>
<path d="M55.1309 425.42L60.3895 428.813C61.3344 427.71 63.5205 425.488 66.932 424.73C70.7766 423.875 75.1914 425.102 75.2924 426.34C75.3754 427.334 72.6866 428.336 72.2714 428.491C68.916 429.742 66.427 428.701 65.0713 430.065C64.591 430.545 63.994 431.444 62.6182 432.274C62.2569 432.491 61.8798 432.684 61.68 432.764C59.4401 433.644 55.5999 429.704 55.27 429.359L55.1309 425.42Z" fill="url(#paint18_linear_44_631)"/>
<path d="M70.6645 355.732C74.4688 346.526 77.1037 332.43 71.0954 311.498C31.5085 327.261 11.3201 364.629 19.2024 394.25C25.7 418.67 49.3426 430.564 54.617 433.068C55.8447 430.244 57.0723 427.423 58.2978 424.601C52.1863 417.724 45.2982 407.554 46.2723 395.949C47.6234 379.859 62.9639 374.368 70.6645 355.732Z" fill="url(#paint19_linear_44_631)"/>
<path d="M101.222 289.176C101.222 289.176 100.91 296.173 98.7595 301.414C96.8158 306.15 86.5993 309.128 84.5277 310.185C82.4561 311.242 88.4083 314.333 94.3851 314.939C100.362 315.546 117.428 314.174 120.506 311.886C123.583 309.597 118.032 309.77 113.768 308.187C109.501 306.603 107.035 298.173 107.789 294.347C108.543 290.518 101.222 289.176 101.222 289.176Z" fill="url(#paint20_linear_44_631)"/>
<path d="M110.675 286.638C113.777 283.558 114.21 283.199 114.547 282.136C115.902 277.865 112.623 272.013 108.323 270.573C108.098 270.498 105.214 269.566 104.115 270.829C103.179 271.902 104.554 273.386 103.901 275.456C103.289 277.393 101.628 277.538 98.5462 280.079C96.0077 282.17 94.4321 283.472 94.0686 285.302C93.3189 289.074 97.8369 294.54 101.836 294.392C103.275 294.338 103.668 293.596 110.675 286.638Z" fill="url(#paint21_linear_44_631)"/>
<path d="M102.23 294.975C102.23 294.975 105.527 298.747 110.548 297.5C115.043 296.384 113.896 285.955 110.606 284.29C109.508 283.735 107.513 283.78 106.014 284.51C105.127 284.941 104.88 285.39 103.419 286.066C102.073 286.69 101.644 286.604 101.283 287.044C100.829 287.593 100.634 288.777 102.055 291.63C101.031 290.897 99.9293 290.743 99.2537 291.228C99.146 291.306 98.8722 291.578 98.7532 291.934C98.3245 293.224 99.6532 294.538 102.23 294.975Z" fill="url(#paint22_linear_44_631)"/>
<path d="M478.227 153.777L479.388 160.107L455.5 160.164L248.207 160.661C242.874 160.674 237.97 165.129 237.238 170.611L187.754 504.814C187.018 510.346 195.537 518.79 200.839 519.203L292.803 526.345V526.232L430.368 536.896C430.37 536.896 430.372 536.896 430.374 536.896L430.706 537.037C436.58 537.495 441.969 533.188 442.732 527.345C442.732 527.343 442.732 527.37 442.734 527.368L489.077 170.547C489.831 164.759 484.135 153.761 478.227 153.777Z" fill="url(#paint23_linear_44_631)"/>
<path d="M438.045 520.392C437.286 526.237 431.899 530.605 426.026 530.149L195.92 512.295C190.621 511.885 186.934 507.067 187.67 501.536L232.654 163.778C233.384 158.296 238.288 153.842 243.616 153.826L475.021 153.182C480.926 153.166 485.114 157.845 484.365 163.633L438.045 520.392Z" fill="url(#paint24_linear_44_631)"/>
<path d="M441.101 334.644C440.724 337.538 438.049 339.697 435.127 339.589L232.607 332.12C229.934 332.022 228.053 329.797 228.421 327.033L232.403 297.21C232.771 294.448 235.21 292.579 237.886 292.654L440.583 298.342C443.509 298.423 445.581 300.512 445.206 303.404L441.101 334.644Z" fill="white"/>
<path d="M433.26 395.24C432.883 398.141 430.206 400.616 427.284 400.468L224.917 390.366C222.246 390.233 220.387 387.649 220.755 384.882L224.768 354.484C225.137 351.719 227.599 349.349 230.272 349.458L432.762 357.711C435.684 357.831 437.752 360.503 437.375 363.399L433.26 395.24Z" fill="white"/>
<path opacity="0.1" d="M445.223 303.284C444.743 303.128 444.227 303.041 443.677 303.026L240.975 297.34C238.302 297.262 235.86 299.136 235.497 301.892L231.508 331.714C231.5 331.791 231.493 331.864 231.486 331.941C229.43 331.356 228.108 329.387 228.418 327.028L232.406 297.206C232.77 294.45 235.212 292.574 237.885 292.654L440.586 298.34C443.461 298.426 445.524 300.449 445.223 303.284Z" fill="url(#paint25_linear_44_631)"/>
<path opacity="0.1" d="M437.417 362.728C436.93 362.533 436.405 362.415 435.848 362.392L233.362 354.137C230.689 354.028 228.222 356.402 227.859 359.167L223.839 389.568C223.817 389.763 223.801 389.951 223.801 390.146C221.745 389.475 220.439 387.241 220.748 384.882L224.768 354.481C225.132 351.717 227.596 349.342 230.271 349.451L432.757 357.707C435.462 357.825 437.424 360.104 437.417 362.728Z" fill="url(#paint26_linear_44_631)"/>
<path d="M379.44 444.356C380.037 439.781 376.836 435.567 372.287 435.301L267.529 429.223C263.19 428.971 259.184 432.664 258.594 437.118L254.271 470.046C253.681 474.507 256.691 478.775 261.027 479.075L365.731 486.314C370.278 486.63 374.466 482.749 375.065 478.168L379.44 444.356Z" fill="url(#paint27_linear_44_631)"/>
<path d="M387.35 222.51C385.97 233.036 380.619 242.537 373.011 249.525C364.812 257.062 354.012 261.648 342.781 261.428C331.606 261.21 322.2 256.277 316.16 248.573C310.589 241.471 307.86 232.009 309.227 221.66C312.071 200.129 331.646 182.724 353.128 182.776C374.813 182.824 390.219 200.612 387.35 222.51Z" fill="url(#paint28_linear_44_631)"/>
<path d="M366.461 210.547C365.222 219.977 356.608 227.534 347.256 227.421C337.941 227.308 331.419 219.626 332.651 210.263C333.886 200.903 342.412 193.353 351.731 193.396C361.09 193.439 367.7 201.116 366.461 210.547Z" fill="white"/>
<path d="M373.013 249.525C364.814 257.062 354.014 261.648 342.783 261.428C331.608 261.21 322.202 256.277 316.162 248.573C323.075 238.841 334.476 232.368 346.585 232.526C358.759 232.685 368.571 239.503 373.013 249.525Z" fill="white"/>
<path opacity="0.4" d="M484.362 163.632L438.044 520.391C437.286 526.234 431.556 530.577 425.684 530.121L287.48 519.398C280.915 512.605 275.509 504.454 271.65 494.672C269.756 489.875 268.369 484.699 267.447 479.256C264.881 464.191 265.876 447.068 269.617 430.259C272.494 417.32 277.006 404.546 282.781 393.02C287.4 383.805 292.831 375.379 298.898 368.298C303.265 363.202 307.99 358.251 312.972 353.395C318.981 347.534 325.366 341.814 331.953 336.146C347.303 322.93 363.739 310.009 378.956 296.365C414.067 264.889 442.553 229.718 435.699 179.535C435.479 177.955 433.34 165.85 430.606 153.303L474.677 153.181C480.58 153.165 485.114 157.846 484.362 163.632Z" fill="white"/>
<defs>
<linearGradient id="paint0_linear_44_631" x1="420.829" y1="458.058" x2="587.803" y2="11.7971" gradientUnits="userSpaceOnUse">
<stop offset="0.00359712" stop-color="#E38DDD"/>
<stop offset="1" stop-color="#9571F6"/>
</linearGradient>
<linearGradient id="paint1_linear_44_631" x1="299.475" y1="413.891" x2="617.446" y2="413.891" gradientUnits="userSpaceOnUse">
<stop stop-color="#FF9085"/>
<stop offset="1" stop-color="#FB6FBB"/>
</linearGradient>
<linearGradient id="paint2_linear_44_631" x1="381.072" y1="338.14" x2="474.951" y2="348.275" gradientUnits="userSpaceOnUse">
<stop stop-color="#444B8C"/>
<stop offset="0.9964" stop-color="#26264F"/>
</linearGradient>
<linearGradient id="paint3_linear_44_631" x1="298.376" y1="99.0635" x2="534.973" y2="896.144" gradientUnits="userSpaceOnUse">
<stop stop-color="#444B8C"/>
<stop offset="0.9964" stop-color="#26264F"/>
</linearGradient>
<linearGradient id="paint4_linear_44_631" x1="385.342" y1="79.3979" x2="663.169" y2="824.005" gradientUnits="userSpaceOnUse">
<stop stop-color="#FFC444"/>
<stop offset="0.9964" stop-color="#F36F56"/>
</linearGradient>
<linearGradient id="paint5_linear_44_631" x1="-1997.66" y1="2156.43" x2="-1809.25" y2="1980.63" gradientUnits="userSpaceOnUse">
<stop stop-color="#311944"/>
<stop offset="1" stop-color="#893976"/>
</linearGradient>
<linearGradient id="paint6_linear_44_631" x1="57.1693" y1="195.217" x2="208.085" y2="59.6923" gradientUnits="userSpaceOnUse">
<stop stop-color="#FF9085"/>
<stop offset="1" stop-color="#FB6FBB"/>
</linearGradient>
<linearGradient id="paint7_linear_44_631" x1="208.643" y1="314.429" x2="178.701" y2="344.588" gradientUnits="userSpaceOnUse">
<stop stop-color="#FFC444"/>
<stop offset="0.9964" stop-color="#F36F56"/>
</linearGradient>
<linearGradient id="paint8_linear_44_631" x1="135.207" y1="603.884" x2="135.462" y2="536.281" gradientUnits="userSpaceOnUse">
<stop stop-color="#AA80F9"/>
<stop offset="0.9964" stop-color="#6165D7"/>
</linearGradient>
<linearGradient id="paint9_linear_44_631" x1="128.582" y1="625.609" x2="125.33" y2="590.683" gradientUnits="userSpaceOnUse">
<stop stop-color="#FFC444"/>
<stop offset="0.9964" stop-color="#F36F56"/>
</linearGradient>
<linearGradient id="paint10_linear_44_631" x1="95.7669" y1="603.737" x2="96.0218" y2="536.133" gradientUnits="userSpaceOnUse">
<stop stop-color="#AA80F9"/>
<stop offset="0.9964" stop-color="#6165D7"/>
</linearGradient>
<linearGradient id="paint11_linear_44_631" x1="88.6099" y1="629.33" x2="85.3576" y2="594.403" gradientUnits="userSpaceOnUse">
<stop stop-color="#FFC444"/>
<stop offset="0.9964" stop-color="#F36F56"/>
</linearGradient>
<linearGradient id="paint12_linear_44_631" x1="127.373" y1="449.593" x2="102.352" y2="576.177" gradientUnits="userSpaceOnUse">
<stop stop-color="#311944"/>
<stop offset="1" stop-color="#893976"/>
</linearGradient>
<linearGradient id="paint13_linear_44_631" x1="139.609" y1="511.54" x2="102.764" y2="514.462" gradientUnits="userSpaceOnUse">
<stop stop-color="#311944"/>
<stop offset="1" stop-color="#893976"/>
</linearGradient>
<linearGradient id="paint14_linear_44_631" x1="119.232" y1="518.541" x2="63.2981" y2="522.978" gradientUnits="userSpaceOnUse">
<stop stop-color="#311944"/>
<stop offset="1" stop-color="#893976"/>
</linearGradient>
<linearGradient id="paint15_linear_44_631" x1="163.408" y1="332.007" x2="121.176" y2="600.403" gradientUnits="userSpaceOnUse">
<stop stop-color="#AA80F9"/>
<stop offset="0.9964" stop-color="#6165D7"/>
</linearGradient>
<linearGradient id="paint16_linear_44_631" x1="75.4066" y1="626.76" x2="54.9727" y2="897.74" gradientUnits="userSpaceOnUse">
<stop stop-color="#AA80F9"/>
<stop offset="0.9964" stop-color="#6165D7"/>
</linearGradient>
<linearGradient id="paint17_linear_44_631" x1="7.36565" y1="534.354" x2="119.553" y2="344.19" gradientUnits="userSpaceOnUse">
<stop stop-color="#AA80F9"/>
<stop offset="0.9964" stop-color="#6165D7"/>
</linearGradient>
<linearGradient id="paint18_linear_44_631" x1="46.5205" y1="402.162" x2="70.1319" y2="433.726" gradientUnits="userSpaceOnUse">
<stop stop-color="#FFC444"/>
<stop offset="0.9964" stop-color="#F36F56"/>
</linearGradient>
<linearGradient id="paint19_linear_44_631" x1="26.5109" y1="623.073" x2="6.07706" y2="894.054" gradientUnits="userSpaceOnUse">
<stop stop-color="#AA80F9"/>
<stop offset="0.9964" stop-color="#6165D7"/>
</linearGradient>
<linearGradient id="paint20_linear_44_631" x1="112.674" y1="322.921" x2="89.9616" y2="294.957" gradientUnits="userSpaceOnUse">
<stop stop-color="#FFC444"/>
<stop offset="0.9964" stop-color="#F36F56"/>
</linearGradient>
<linearGradient id="paint21_linear_44_631" x1="95.6212" y1="312.564" x2="107.737" y2="273.121" gradientUnits="userSpaceOnUse">
<stop stop-color="#444B8C"/>
<stop offset="0.9964" stop-color="#3E4177"/>
</linearGradient>
<linearGradient id="paint22_linear_44_631" x1="125.934" y1="298.776" x2="92.3865" y2="283.999" gradientUnits="userSpaceOnUse">
<stop stop-color="#FFC444"/>
<stop offset="0.9964" stop-color="#F36F56"/>
</linearGradient>
<linearGradient id="paint23_linear_44_631" x1="187.71" y1="345.425" x2="489.145" y2="345.425" gradientUnits="userSpaceOnUse">
<stop stop-color="#311944"/>
<stop offset="1" stop-color="#893976"/>
</linearGradient>
<linearGradient id="paint24_linear_44_631" x1="370.972" y1="944.539" x2="334.271" y2="315.446" gradientUnits="userSpaceOnUse">
<stop offset="0.003597" stop-color="#F36F56"/>
<stop offset="1" stop-color="#FFC444"/>
</linearGradient>
<linearGradient id="paint25_linear_44_631" x1="228.372" y1="312.298" x2="445.251" y2="312.298" gradientUnits="userSpaceOnUse">
<stop offset="0.003597" stop-color="#F36F56"/>
<stop offset="1" stop-color="#FFC444"/>
</linearGradient>
<linearGradient id="paint26_linear_44_631" x1="220.705" y1="369.798" x2="437.417" y2="369.798" gradientUnits="userSpaceOnUse">
<stop offset="0.003597" stop-color="#F36F56"/>
<stop offset="1" stop-color="#FFC444"/>
</linearGradient>
<linearGradient id="paint27_linear_44_631" x1="327.225" y1="391.028" x2="277.779" y2="701.315" gradientUnits="userSpaceOnUse">
<stop offset="0.003597" stop-color="#F36F56"/>
<stop offset="1" stop-color="#FFC444"/>
</linearGradient>
<linearGradient id="paint28_linear_44_631" x1="343.159" y1="67.796" x2="353.724" y2="379.12" gradientUnits="userSpaceOnUse">
<stop offset="0.003597" stop-color="#F36F56"/>
<stop offset="1" stop-color="#FFC444"/>
</linearGradient>
</defs>
</svg>
